<?xml version="1.0" standalone="no"?>
<!DOCTYPE svg PUBLIC "-//W3C//DTD SVG 20010904//EN"
 "http://www.w3.org/TR/2001/REC-SVG-20010904/DTD/svg10.dtd">
<svg version="1.0" xmlns="http://www.w3.org/2000/svg"
 width="260.000000pt" height="260.000000pt" viewBox="0 0 260.000000 260.000000"
 preserveAspectRatio="xMidYMid meet">
<metadata>
Created by potrace 1.11, written by Peter Selinger 2001-2013
</metadata>
<g transform="translate(0.000000,260.000000) scale(0.100000,-0.100000)"
fill="#000000" stroke="none">
<path d="M0 1300 l0 -1300 1300 0 1300 0 0 1300 0 1300 -1300 0 -1300 0 0
-1300z m213 1215 c120 -25 224 -102 276 -203 26 -51 51 -153 51 -210 l0 -42
-57 6 c-106 10 -157 24 -218 58 -107 59 -162 161 -172 319 l-6 87 29 0 c16 0
60 -7 97 -15z m1345 -445 c306 -73 541 -306 623 -615 16 -61 21 -110 21 -205
0 -95 -5 -144 -21 -205 -82 -309 -318 -542 -624 -615 -101 -24 -265 -26 -367
-5 -491 103 -782 606 -628 1085 91 284 331 502 622 565 96 21 276 18 374 -5z
m-1220 -81 c24 -12 57 -40 73 -62 28 -39 28 -41 12 -60 -25 -27 -80 -53 -129
-60 -56 -9 -130 14 -189 60 l-49 37 43 37 c75 67 162 85 239 48z"/>
</g>
</svg>
