<svg width="95" height="71" viewBox="0 0 95 71" version="1.1" xmlns="http://www.w3.org/2000/svg" xmlns:xlink="http://www.w3.org/1999/xlink">
<title>Group 26</title>
<desc>Created using Figma</desc>
<g id="Canvas" transform="translate(409 -458)">
<g id="Group 26">
<g id="Vector">
<use xlink:href="#path0_fill" transform="translate(-388.454 495.282)" fill="#FFB424"/>
</g>
<g id="Vector">
<use xlink:href="#path1_fill" transform="translate(-358.863 503.986)" fill="#FFB424"/>
</g>
<g id="Vector">
<use xlink:href="#path2_fill" transform="translate(-408.114 458)" fill="#FFCC00"/>
</g>
<g id="Vector">
<use xlink:href="#path3_fill" transform="translate(-374.47 480.012)" fill="#FFCC00"/>
</g>
</g>
</g>
<defs>
<path id="path0_fill" d="M 72.5529 -2.02766e-05L 52.4101 -2.02766e-05L 42.0201 5.07754C 46.5507 7.00474 49.7299 11.5312 49.7299 16.8069C 49.7299 23.8343 44.0891 29.5291 37.1288 29.5291C 30.174 29.5291 24.5314 23.8324 24.5314 16.8069C 24.5314 15.6272 24.6939 14.4852 24.9911 13.4017L 2.64661e-05 25.6181L 2.64661e-05 31.9942C 2.64661e-05 32.9456 0.762577 33.7176 1.70458 33.7176L 72.5529 33.7176C 73.4987 33.7176 74.2613 32.9456 74.2613 31.9942L 74.2613 1.72337C 74.2613 0.770154 73.4987 -2.02766e-05 72.5529 -2.02766e-05Z"/>
<path id="path1_fill" d="M 8.74719 2.79358C 9.93777 2.79358 10.8387 3.10694 11.4629 3.73172L 12.1059 0.673874C 11.2012 0.226521 10.1377 2.30416e-05 8.91163 2.30416e-05C 6.6669 2.30416e-05 4.8558 0.745567 3.47644 2.23108C 2.56808 3.21828 1.95692 4.44332 1.65039 5.90996L 0.351388 5.90996L 2.7835e-05 7.6201L 1.43171 7.6201C 1.41675 7.8787 1.40929 8.17694 1.40929 8.51671C 1.40929 8.7149 1.41299 8.90178 1.42047 9.07921L 0.351388 9.07921L 2.7835e-05 10.7912L 1.61674 10.7912C 1.91579 12.2861 2.53256 13.5319 3.46709 14.5342C 4.83523 16.0047 6.58468 16.7427 8.71353 16.7427C 9.97701 16.7427 11.0798 16.503 12.0274 16.0254L 12.0274 12.6448C 11.1957 13.5149 10.0817 13.9491 8.67988 13.9491C 7.51546 13.9491 6.56599 13.5149 5.83706 12.6448C 5.46138 12.1955 5.17914 11.5783 4.99784 10.7912L 9.98448 10.7912L 10.3359 9.07921L 4.76797 9.07921C 4.75302 8.80174 4.7455 8.52992 4.7455 8.27322C 4.7455 8.00707 4.74926 7.78998 4.75674 7.6201L 10.6405 7.6201L 10.9882 5.90996L 4.97543 5.90996C 5.15112 5.17947 5.44644 4.57355 5.86324 4.08656C 6.59591 3.22394 7.56034 2.79358 8.74719 2.79358Z"/>
<path id="path2_fill" d="M 80.0758 28.224L 67.0149 0.975043C 66.6055 0.116201 65.5831 -0.242471 64.7364 0.172793L 0.964325 31.3479C 0.115774 31.7612 -0.239323 32.7937 0.17 33.6488L 13.231 60.8958C 13.6403 61.7528 14.6608 62.1133 15.5093 61.698L 79.2795 30.5249C 80.13 30.1096 80.4851 29.0809 80.0758 28.224ZM 45.5899 42.3429C 39.3248 45.4045 31.7925 42.7601 28.7609 36.433C 25.7274 30.1077 28.3479 22.499 34.6111 19.4373C 40.8761 16.3757 48.4103 19.0201 51.44 25.3473C 54.4716 31.6706 51.8549 39.2794 45.5899 42.3429Z"/>
<path id="path3_fill" d="M 9.91409 6.67444C 9.07488 6.29693 7.82823 6.26296 6.16851 6.57818L 4.43401 2.96158C 5.1536 2.93138 5.75548 3.2466 6.24517 3.90536L 8.41699 2.46705C 7.81328 1.61953 7.0918 1.0589 6.25447 0.787087C 5.41713 0.515277 4.48264 0.558723 3.45653 0.913585L 3.01728 -1.33641e-05L 1.69026 0.649298L 2.12764 1.5648C 1.12769 2.18392 0.475369 2.99179 0.174452 3.98843C -0.128335 4.98317 -0.0367588 5.98926 0.447326 7.001C 0.927673 7.99763 1.61361 8.71112 2.50889 9.1396C 3.40416 9.56808 4.53121 9.66059 5.89375 9.41898L 7.75163 13.2979C 7.34604 13.2998 6.92359 13.1828 6.48063 12.9582C 6.0414 12.7317 5.65637 12.3956 5.31994 11.9502L 3.05281 13.3791C 3.81912 14.5041 4.69196 15.2383 5.66947 15.5819C 6.64699 15.9273 7.69551 15.9046 8.81694 15.5177L 9.62439 17.2033L 10.9533 16.5521L 10.1234 14.8212C 11.2318 14.0681 11.9364 13.1431 12.2392 12.0521C 12.542 10.9611 12.4261 9.85686 11.8897 8.73942C 11.4056 7.74279 10.7496 7.05384 9.91409 6.67444ZM 3.41164 6.54039C 3.08269 6.35541 2.83787 6.10064 2.68274 5.77409C 2.51079 5.41545 2.46216 5.03416 2.53319 4.63399C 2.60421 4.23194 2.79302 3.88462 3.09394 3.58261L 4.62657 6.78579C 4.14996 6.80655 3.74433 6.72726 3.41164 6.54039ZM 9.94962 11.5878C 9.82627 12.0729 9.55521 12.4711 9.13842 12.7807L 7.40956 9.17168C 8.0357 9.06409 8.54036 9.09993 8.92726 9.28113C 9.31041 9.46423 9.60195 9.76063 9.80007 10.1759C 10.0225 10.6346 10.0711 11.1083 9.94962 11.5878Z"/>
</defs>
</svg>
