<svg width="34" height="34" viewBox="0 0 34 34" version="1.1" xmlns="http://www.w3.org/2000/svg" xmlns:xlink="http://www.w3.org/1999/xlink">
<title>1495486749_11</title>
<desc>Created using Figma</desc>
<g id="Canvas" transform="translate(-505 -6831)">
<g id="1495486749_11">
<g id="Vector">
<use xlink:href="#path0_fill" transform="translate(505 6831)" fill="#54769B"/>
</g>
<g id="VK 1">
<use xlink:href="#path1_fill" transform="translate(511.34 6841.62)" fill="#FFFFFF"/>
</g>
</g>
</g>
<defs>
<path id="path0_fill" d="M 31.1035 0L 2.82759 0C 1.27241 0 0 1.275 0 2.83333L 0 31.1667C 0 32.725 1.27241 34 2.82759 34L 31.1035 34C 32.6586 34 33.931 32.725 33.931 31.1667L 33.931 2.83333C 33.931 1.275 32.6586 0 31.1035 0Z"/>
<path id="path1_fill" d="M 11.3319 12.75C 12.0388 12.75 12.0388 11.7583 12.0388 11.3333C 12.0388 10.625 12.7457 9.91667 13.4526 9.91667C 14.1595 9.91667 15.3612 11.1208 16.2802 12.0417C 16.9871 12.75 16.9871 12.75 17.694 12.75C 18.4009 12.75 19.8147 12.75 19.8147 12.75C 19.8147 12.75 21.2285 12.6792 21.2285 11.3333C 21.2285 10.9083 20.7337 10.1292 19.1078 8.5C 17.694 7.08333 16.9871 7.79167 19.1078 4.95833C 20.3802 3.1875 21.3699 1.62917 21.2285 1.20417C 21.0871 0.779167 17.4819 0.0708333 16.9871 0.708333C 15.5733 2.83333 15.2906 3.32917 14.8664 4.25C 14.1595 5.66667 14.0888 6.375 13.4526 6.375C 12.8164 6.375 12.7457 5.02917 12.7457 4.25C 12.7457 1.9125 13.0992 0.283333 12.0388 0C 12.0388 0 10.625 0 9.91815 0C 8.78711 0 7.79745 0.708333 7.79745 0.708333C 7.79745 0.708333 6.94918 1.41667 7.09056 1.41667C 7.30263 1.41667 8.50435 1.13333 8.50435 2.125C 8.50435 2.83333 8.50435 3.54167 8.50435 3.54167C 8.50435 3.54167 8.50435 6.375 7.79745 6.375C 7.09056 6.375 5.67676 3.54167 4.26297 1.41667C 3.69745 0.566667 3.55607 0.708333 2.84918 0.708333C 2.07159 0.708333 1.43538 0.708333 0.728487 0.708333C 0.0215903 0.708333 -0.0490994 1.13333 0.0215903 1.41667C 1.43538 4.95833 2.42504 7.15417 5.11125 9.9875C 7.58539 12.5375 9.21125 12.6792 10.625 12.75C 10.9785 12.75 10.625 12.75 11.3319 12.75Z"/>
</defs>
</svg>
