<svg width="17" height="11" viewBox="0 0 17 11" version="1.1" xmlns="http://www.w3.org/2000/svg" xmlns:xlink="http://www.w3.org/1999/xlink">
<title>if_misc-_tick__1276844</title>
<desc>Created using Figma</desc>
<g id="Canvas" transform="translate(381 -4317)">
<g id="if_misc-_tick__1276844">
<g id="Vector">
<use xlink:href="#path0_stroke" transform="translate(-379.097 4318)" fill="#27AE60"/>
</g>
</g>
</g>
<defs>
<path id="path0_stroke" d="M 0.678993 4.32836C 0.273537 3.95336 -0.359147 3.97805 -0.734144 4.38351C -1.10914 4.78896 -1.08445 5.42165 -0.678993 5.79664L 0.678993 4.32836ZM 4.25732 9L 3.57833 9.73414C 3.96159 10.0886 4.55305 10.0886 4.93632 9.73414L 4.25732 9ZM 14.6673 0.734144C 15.0728 0.359147 15.0975 -0.273537 14.7225 -0.678993C 14.3475 -1.08445 13.7148 -1.10914 13.3094 -0.734144L 14.6673 0.734144ZM -0.678993 5.79664L 3.57833 9.73414L 4.93632 8.26586L 0.678993 4.32836L -0.678993 5.79664ZM 4.93632 9.73414L 14.6673 0.734144L 13.3094 -0.734144L 3.57833 8.26586L 4.93632 9.73414Z"/>
</defs>
</svg>
