<svg width="83" height="76" viewBox="0 0 83 76" version="1.1" xmlns="http://www.w3.org/2000/svg" xmlns:xlink="http://www.w3.org/1999/xlink">
<title>home</title>
<desc>Created using Figma</desc>
<g id="Canvas" transform="translate(405 -312)">
<g id="home">
<g id="Group">
<g id="Vector">
<use xlink:href="#path0_fill" transform="translate(-379.975 350.919)" fill="#FFB424"/>
</g>
<g id="Vector">
<use xlink:href="#path1_fill" transform="translate(-404.119 312)" fill="#FFCC00"/>
</g>
<g id="Vector">
<use xlink:href="#path2_fill" transform="translate(-362.015 350.567)" fill="#FFB424"/>
</g>
</g>
</g>
</g>
<defs>
<path id="path0_fill" d="M 8.69298 6.02582e-06L -7.69981e-06 6.02582e-06L -7.69981e-06 8.59091L 8.69298 8.59091L 8.69298 6.02582e-06Z"/>
<path id="path1_fill" d="M 80.3471 31.6749L 43.8588 1.05144C 42.1873 -0.350481 39.7422 -0.350481 38.0707 1.05144L 1.58401 31.6749C -0.303322 33.2562 -0.537374 36.0584 1.06113 37.9292C 2.65797 39.8001 5.48315 40.0338 7.37214 38.4476L 7.95646 37.9572L 7.95646 73.2274C 7.95646 74.7593 9.208 76 10.755 76L 71.1811 76C 72.7281 76 73.9814 74.7593 73.9814 73.2274L 73.9814 37.9572L 74.5673 38.4476C 75.4072 39.1535 76.4364 39.5007 77.4556 39.5007C 78.7287 39.5007 79.9886 38.9675 80.8767 37.9292C 82.4685 36.0584 82.2328 33.2562 80.3471 31.6749ZM 68.3791 70.4516L 57.7838 70.4516L 42.3815 70.4516L 13.5487 70.4516L 13.5487 33.2627L 40.9656 10.2561L 68.3808 33.2611L 68.3808 70.4516L 68.3791 70.4516Z"/>
<path id="path2_fill" d="M 17.0691 1.90954e-05L -1.5119e-05 1.90954e-05L -1.5119e-05 27.224L 17.0691 27.224L 17.0691 1.90954e-05Z"/>
</defs>
</svg>
