<svg width="87" height="58" viewBox="0 0 87 58" version="1.1" xmlns="http://www.w3.org/2000/svg" xmlns:xlink="http://www.w3.org/1999/xlink">
<title>team</title>
<desc>Created using Figma</desc>
<g id="Canvas" transform="translate(-153 -325)">
<g id="team">
<g id="Group">
<g id="Vector">
<use xlink:href="#path0_fill" transform="translate(205.898 350.353)" fill="#FFB424"/>
</g>
<g id="Vector">
<use xlink:href="#path1_fill" transform="translate(213.597 326.362)" fill="#FFB424"/>
</g>
<g id="Vector">
<use xlink:href="#path2_fill" transform="translate(153.46 350.351)" fill="#FFB424"/>
</g>
<g id="Vector">
<use xlink:href="#path3_fill" transform="translate(162.702 326.362)" fill="#FFB424"/>
</g>
<g id="Vector">
<use xlink:href="#path4_fill" transform="translate(182.09 325)" fill="#FFCC00"/>
</g>
<g id="Vector">
<use xlink:href="#path5_fill" transform="translate(166.31 365.316)" fill="#FFCC00"/>
</g>
</g>
</g>
</g>
<defs>
<path id="path0_fill" d="M 33.2641 6.47142C 30.0356 3.35006 26.0985 1.14348 21.8657 0.0925491C 21.7572 0.0349401 21.6383 9.80266e-06 21.5158 9.80266e-06L 21.1291 9.80266e-06C 21.0101 9.80266e-06 20.8893 0.033182 20.7808 0.090791C 19.5035 0.77337 17.7537 1.16791 15.9724 1.16791C 14.1945 1.16791 12.4377 0.771624 11.1604 0.090791C 11.0519 0.033182 10.9311 9.80266e-06 10.8121 9.80266e-06L 10.5339 9.80266e-06C 10.4779 9.80266e-06 10.4202 0.00871457 10.3642 0.0191889C 8.4796 0.466095 6.65979 1.15218 4.92572 2.03028C 4.03156 5.12894 2.31679 8.08969 2.52049e-05 10.3591L 32.7531 10.3591C 33.1573 10.3591 33.4898 10.031 33.4898 9.6242L 33.4898 7.00034C 33.488 6.80307 33.4093 6.61282 33.2641 6.47142Z"/>
<path id="path1_fill" d="M 1.45249e-05 12.3632C 1.45249e-05 13.1505 0.605445 13.7947 1.34912 13.7947C 1.35962 13.7947 1.36659 13.7947 1.37534 13.7947C 1.65356 17.569 4.63528 21.3433 8.27315 21.3433C 11.9128 21.3433 14.891 17.569 15.1727 13.7947C 15.1797 13.7947 15.1867 13.7947 15.1937 13.7947C 15.9426 13.7947 16.5498 13.1505 16.5498 12.3632C 16.5498 11.7802 16.2191 11.2791 15.7484 11.0539C 16.0196 10.2107 16.1701 9.30123 16.1701 8.3533C 16.1701 3.73934 12.6354 -1.02289e-05 8.27139 -1.02289e-05C 3.90909 -1.02289e-05 0.372695 3.74109 0.372695 8.3533C 0.372695 9.30123 0.523187 10.209 0.796159 11.0539C 0.325457 11.2791 1.45249e-05 11.7802 1.45249e-05 12.3632Z"/>
<path id="path2_fill" d="M 28.0951 1.78936C 26.5902 1.06313 25.0206 0.492308 23.4091 0.0925367C 23.3006 0.0349277 23.1799 -2.55722e-06 23.0591 -2.55722e-06L 22.6742 -2.55722e-06C 22.5552 -2.55722e-06 22.4344 0.0331696 22.3277 0.0907786C 21.0468 0.773358 19.297 1.1679 17.5175 1.1679C 15.7379 1.1679 13.9811 0.771612 12.7037 0.0907786C 12.5952 0.0331696 12.4762 -2.55722e-06 12.3555 -2.55722e-06L 12.0773 -2.55722e-06C 12.0213 -2.55722e-06 11.9635 0.00870221 11.9075 0.0191766C 7.56095 1.04915 3.52414 3.28196 0.220484 6.47141C 0.0804985 6.61281 -5.55363e-06 6.80307 -5.55363e-06 7.00208L -5.55363e-06 9.62595C -5.55363e-06 10.0327 0.328955 10.3609 0.738413 10.3609L 33.0838 10.3609C 30.7076 8.03382 28.9682 4.97182 28.0951 1.78936Z"/>
<path id="path3_fill" d="M 1.70881e-05 12.3632C 1.70881e-05 13.1505 0.605448 13.7947 1.34912 13.7947C 1.35962 13.7947 1.3666 13.7947 1.3771 13.7947C 1.65532 17.569 4.63354 21.3433 8.27492 21.3433C 11.9128 21.3433 14.8927 17.569 15.1727 13.7947C 15.1797 13.7947 15.1867 13.7947 15.1937 13.7947C 15.9443 13.7947 16.5481 13.1505 16.5481 12.3632C 16.5481 11.7802 16.219 11.2791 15.7501 11.0539C 16.0196 10.2107 16.1701 9.30123 16.1701 8.3533C 16.1701 3.73934 12.6337 -1.02289e-05 8.27316 -1.02289e-05C 3.91086 -1.02289e-05 0.372697 3.74109 0.372697 8.3533C 0.372697 9.30123 0.523189 10.209 0.796161 11.0539C 0.32721 11.2791 1.70881e-05 11.7802 1.70881e-05 12.3632Z"/>
<path id="path4_fill" d="M -6.40803e-06 21.1128C -6.40803e-06 22.4657 1.03239 23.5603 2.30801 23.5603C 2.32375 23.5603 2.33777 23.5569 2.34827 23.5569C 2.5285 25.9782 3.35613 28.3925 4.65099 30.4751C 5.16369 31.2974 5.75517 32.0533 6.3991 32.7498C 8.47089 34.9774 11.1709 36.4525 14.1298 36.4525C 17.2917 36.4525 20.1579 34.7749 22.277 32.289C 22.5342 31.9852 22.7826 31.671 23.0189 31.3445C 24.6479 29.0873 25.7048 26.3256 25.913 23.5569C 25.9235 23.5569 25.9393 23.5603 25.9533 23.5603C 27.2289 23.5603 28.2613 22.4657 28.2613 21.1128C 28.2613 20.1212 27.6997 19.2641 26.893 18.8835C 27.3602 17.4363 27.6157 15.8896 27.6157 14.273C 27.6157 6.38934 21.5788 -8.09785e-06 14.128 -8.09785e-06C 6.67731 -8.09785e-06 0.640423 6.38934 0.640423 14.273C 0.640423 15.8896 0.897636 17.4363 1.36309 18.8835C 0.559921 19.2659 -6.40803e-06 20.1212 -6.40803e-06 21.1128Z"/>
<path id="path5_fill" d="M 39.9764 0.150112C 39.7944 0.0471137 39.5879 -1.83267e-05 39.3779 -1.83267e-05L 38.7217 -1.83267e-05C 38.5152 -1.83267e-05 38.3088 0.0471423 38.1286 0.146649C 35.943 1.31629 32.9491 1.98491 29.9114 1.98491C 26.8737 1.98491 23.8798 1.31279 21.696 0.146649C 21.5123 0.0471423 21.3058 -1.83267e-05 21.1011 -1.83267e-05L 20.6234 -1.83267e-05C 20.5271 -1.83267e-05 20.4291 0.00871968 20.3346 0.0314141C 12.9137 1.78412 6.01411 5.59682 0.384946 11.0522C 0.138222 11.2879 -1.58065e-05 11.6108 -1.58065e-05 11.9495L -1.58065e-05 16.4325C -1.58065e-05 17.1239 0.561678 17.6842 1.25986 17.6842L 58.57 17.6842C 59.2629 17.6842 59.8245 17.1256 59.8245 16.4325L 59.8245 11.9495C 59.8245 11.6126 59.6881 11.2879 59.4431 11.0522C 53.9329 5.71204 47.2084 1.94996 39.9764 0.150112Z"/>
</defs>
</svg>
