<svg width="35" height="34" viewBox="0 0 35 34" version="1.1" xmlns="http://www.w3.org/2000/svg" xmlns:xlink="http://www.w3.org/1999/xlink">
<title>g5991</title>
<desc>Created using Figma</desc>
<g id="Canvas" transform="translate(-549 -6831)">
<g id="g5991">
<g id="rect2987">
<use xlink:href="#path0_fill" transform="translate(549.534 6831)" fill="#3B5998"/>
</g>
<g id="f_1_">
<use xlink:href="#path1_fill" transform="translate(559.617 6834.72)" fill="#FFFFFF"/>
</g>
</g>
</g>
<defs>
<path id="path0_fill" d="M 29.6897 0L 4.24138 0C 1.89893 0 0 1.90279 0 4.25L 0 29.75C 0 32.0972 1.89893 34 4.24138 34L 29.6897 34C 32.0321 34 33.931 32.0972 33.931 29.75L 33.931 4.25C 33.931 1.90279 32.0321 0 29.6897 0Z"/>
<path id="path1_fill" d="M 8.93523 26.5625L 8.93523 14.4459L 12.994 14.4459L 13.6017 9.72419L 8.93532 9.72419L 8.93532 6.70969C 8.93532 5.34249 9.31444 4.41074 11.2704 4.41074L 13.7659 4.41L 13.7659 0.186465C 13.3345 0.128438 11.8535 -1.13082e-07 10.1297 -1.13082e-07C 6.53197 -1.13082e-07 4.06919 2.20109 4.06919 6.24206L 4.06919 9.72421L -2.91556e-07 9.72421L -2.91556e-07 14.4459L 4.0691 14.4459L 4.0691 26.5625L 8.93523 26.5625L 8.93523 26.5625Z"/>
</defs>
</svg>
