<svg width="78" height="87" viewBox="0 0 78 87" version="1.1" xmlns="http://www.w3.org/2000/svg" xmlns:xlink="http://www.w3.org/1999/xlink">
<title>Page 1</title>
<desc>Created using Figma</desc>
<g id="Canvas" transform="translate(-159 -447)">
<g id="Untitled-4">
<g id="Group">
<g id="Vector">
<use xlink:href="#path0_fill" transform="translate(159.455 447)" fill="#FFCC00"/>
</g>
</g>
</g>
<g id="5">
<use xlink:href="#path1_fill" transform="translate(186 480)" fill="#FFB424"/>
</g>
</g>
<defs>
<path id="path0_fill" d="M 76.9359 10.9634C 76.9359 4.9184 71.9265 2.61133e-05 65.77 2.61133e-05L 11.0244 2.61133e-05C 10.9979 2.61133e-05 10.9767 0.00357491 10.9484 0.00535758C 10.9219 0.00357491 10.8989 2.61133e-05 10.8724 2.61133e-05C 4.87678 2.61133e-05 7.33617e-06 4.92018 7.33617e-06 10.9634L 7.33617e-06 75.0628C 7.33617e-06 75.8704 0.32348 76.6405 0.899713 77.1967L 9.78181 85.8372C 10.9219 86.9425 12.7231 86.9425 13.8632 85.8372L 22.9256 77.0237L 32.3274 86.1671C 33.4675 87.2777 35.2704 87.2777 36.4105 86.1671L 45.8123 77.0237L 55.2158 86.1671C 55.785 86.7215 56.5203 86.9995 57.2538 86.9995C 57.9891 86.9995 58.7262 86.7215 59.2954 86.1671L 67.8063 77.8901C 68.3808 77.3304 68.706 76.5602 68.706 75.7562L 68.706 21.5346C 73.4431 20.26 76.9359 16.0084 76.9359 10.9634ZM 57.2538 79.9206L 47.8503 70.7737C 46.7119 69.6649 44.9108 69.6649 43.7707 70.7737L 34.3689 79.9206L 24.9654 70.7737C 23.8253 69.6649 22.0241 69.6649 20.884 70.7737L 11.8216 79.5854L 5.87719 73.806L 5.87719 10.9634C 5.87719 8.18425 8.11853 5.92557 10.8724 5.92557C 10.8972 5.92557 10.9184 5.91844 10.9414 5.91844C 10.9714 5.91844 10.9962 5.92557 11.0244 5.92557L 11.035 5.92557C 13.9462 5.9327 16.3131 8.19138 16.3131 10.9634C 16.3131 13.7426 13.9409 16.003 11.0244 16.003C 9.40002 16.003 8.08667 17.3276 8.08667 18.9641C 8.08667 20.6023 9.40002 21.9304 11.0244 21.9304L 62.8306 21.9304L 62.8306 74.4942L 57.2538 79.9206ZM 65.77 16.003L 20.9423 16.003C 21.7395 14.4895 22.1938 12.7764 22.1938 10.9634C 22.1938 9.15045 21.7395 7.43549 20.9423 5.92557L 65.77 5.92557C 68.6866 5.92557 71.0587 8.18603 71.0587 10.9634C 71.0587 13.7408 68.6866 16.003 65.77 16.003Z"/>
<path id="path1_fill" d="M 0.849948 14.4214L 2.34208 0L 17.1123 0L 17.1123 4.12602L 6.1574 4.12602L 5.40189 10.9634C 6.67366 10.2037 8.10913 9.82385 9.70829 9.82385C 12.3274 9.82385 14.361 10.6949 15.809 12.437C 17.2697 14.1791 18 16.5237 18 19.4709C 18 22.3787 17.1941 24.6972 15.5824 26.4262C 13.9706 28.142 11.7608 29 8.95278 29C 6.43442 29 4.34418 28.2599 2.68206 26.7798C 1.03253 25.2866 0.13851 23.3218 0 20.8855L 4.43861 20.8855C 4.6149 22.2739 5.09339 23.3415 5.87408 24.0881C 6.65477 24.8216 7.67471 25.1883 8.93389 25.1883C 10.3442 25.1883 11.4397 24.6644 12.2204 23.6165C 13.0136 22.5687 13.4103 21.1409 13.4103 19.3333C 13.4103 17.5912 12.9759 16.2159 12.107 15.2073C 11.2382 14.1856 10.042 13.6748 8.51836 13.6748C 7.6873 13.6748 6.98216 13.7927 6.40294 14.0285C 5.82371 14.2511 5.19412 14.6965 4.51417 15.3645L 0.849948 14.4214Z"/>
</defs>
</svg>
