<svg width="34" height="34" viewBox="0 0 34 34" version="1.1" xmlns="http://www.w3.org/2000/svg" xmlns:xlink="http://www.w3.org/1999/xlink">
<title>1495486639_telegram</title>
<desc>Created using Figma</desc>
<g id="Canvas" transform="translate(-595 -6831)">
<g id="1495486639_telegram">
<g id="g3885">
<g id="rect2987">
<use xlink:href="#path0_fill" transform="translate(595 6831)" fill="#64A9DC"/>
</g>
<g id="path9">
<use xlink:href="#path1_fill" transform="translate(599.009 6837.11)" fill="#FFFFFF"/>
</g>
</g>
</g>
</g>
<defs>
<path id="path0_fill" d="M 29.6897 0L 4.24138 0C 1.89893 0 0 1.90279 0 4.25L 0 29.75C 0 32.0972 1.89893 34 4.24138 34L 29.6897 34C 32.0321 34 33.931 32.0972 33.931 29.75L 33.931 4.25C 33.931 1.90279 32.0321 0 29.6897 0Z"/>
<path id="path1_fill" d="M 24.1627 0.143994L 1.20967 9.01501C -0.356911 9.64483 -0.34762 10.5204 0.924124 10.9108L 6.64867 12.7012L 8.83902 19.4302C 9.1053 20.1667 8.97404 20.4588 9.74586 20.4588C 10.3415 20.4588 10.6057 20.1867 10.9375 19.862C 11.1484 19.6551 12.401 18.4349 13.7996 17.0723L 19.7542 21.4808C 20.8499 22.0865 21.6411 21.7727 21.9139 20.4611L 25.8227 2.00415C 26.2229 0.396469 25.211 -0.332768 24.1627 0.143994ZM 7.54708 12.2898L 20.4502 4.13259C 21.0944 3.74115 21.685 3.9516 21.2001 4.38293L 10.1516 14.3717L 9.7214 18.9694L 7.54708 12.2898Z"/>
</defs>
</svg>
