<svg width="165" height="38" viewBox="0 0 165 38" version="1.1" xmlns="http://www.w3.org/2000/svg" xmlns:xlink="http://www.w3.org/1999/xlink">
<title>&#208;&#144;&#208;&#160;&#208;&#154;&#208;&#158;&#208;&#157;</title>
<desc>Created using Figma</desc>
<g id="Canvas" transform="translate(-461 -6770)">
<g id="&#208;&#144;&#208;&#160;&#208;&#154;&#208;&#158;&#208;&#157;">
<use xlink:href="#path0_fill" transform="translate(459 6761)"/>
</g>
</g>
<defs>
<path id="path0_fill" d="M 25.9082 38.6758L 13.0664 38.6758L 10.625 46L 2.83691 46L 16.0693 10.4531L 22.8564 10.4531L 36.1621 46L 28.374 46L 25.9082 38.6758ZM 15.0439 32.7432L 23.9307 32.7432L 19.4629 19.4375L 15.0439 32.7432ZM 46.8066 33.4756L 46.8066 46L 39.4824 46L 39.4824 10.4531L 53.3496 10.4531C 56.0189 10.4531 58.3626 10.9414 60.3809 11.918C 62.4154 12.8945 63.9779 14.2861 65.0684 16.0928C 66.1589 17.8831 66.7041 19.9258 66.7041 22.2207C 66.7041 25.7038 65.5078 28.4544 63.1152 30.4727C 60.7389 32.4746 57.443 33.4756 53.2275 33.4756L 46.8066 33.4756ZM 46.8066 27.543L 53.3496 27.543C 55.2865 27.543 56.7594 27.0872 57.7686 26.1758C 58.7939 25.2643 59.3066 23.9622 59.3066 22.2695C 59.3066 20.528 58.7939 19.1201 57.7686 18.0459C 56.7432 16.9717 55.3271 16.4183 53.5205 16.3857L 46.8066 16.3857L 46.8066 27.543ZM 83.3545 31.4736L 79.1309 31.4736L 79.1309 46L 71.8066 46L 71.8066 10.4531L 79.1309 10.4531L 79.1309 24.6865L 82.4756 24.6865L 91.167 10.4531L 100.103 10.4531L 89.1406 27.2744L 101.25 46L 92.5098 46L 83.3545 31.4736ZM 132.5 29.0322C 132.5 32.5316 131.882 35.5996 130.645 38.2363C 129.408 40.873 127.633 42.9076 125.322 44.3398C 123.027 45.7721 120.391 46.4883 117.412 46.4883C 114.466 46.4883 111.838 45.7803 109.526 44.3643C 107.215 42.9482 105.425 40.93 104.155 38.3096C 102.886 35.6729 102.243 32.6455 102.227 29.2275L 102.227 27.4697C 102.227 23.9704 102.853 20.8942 104.106 18.2412C 105.376 15.5719 107.158 13.5293 109.453 12.1133C 111.764 10.681 114.401 9.96484 117.363 9.96484C 120.326 9.96484 122.954 10.681 125.249 12.1133C 127.56 13.5293 129.342 15.5719 130.596 18.2412C 131.865 20.8942 132.5 23.9622 132.5 27.4453L 132.5 29.0322ZM 125.078 27.4209C 125.078 23.6937 124.411 20.8617 123.076 18.9248C 121.742 16.988 119.837 16.0195 117.363 16.0195C 114.906 16.0195 113.009 16.9798 111.675 18.9004C 110.34 20.8047 109.665 23.6042 109.648 27.2988L 109.648 29.0322C 109.648 32.6618 110.316 35.4775 111.65 37.4795C 112.985 39.4814 114.906 40.4824 117.412 40.4824C 119.87 40.4824 121.758 39.5221 123.076 37.6016C 124.395 35.6647 125.062 32.849 125.078 29.1543L 125.078 27.4209ZM 166.753 46L 159.429 46L 159.429 30.7656L 145.146 30.7656L 145.146 46L 137.822 46L 137.822 10.4531L 145.146 10.4531L 145.146 24.8574L 159.429 24.8574L 159.429 10.4531L 166.753 10.4531L 166.753 46Z"/>
</defs>
</svg>
