<svg width="165" height="38" viewBox="0 0 165 38" version="1.1" xmlns="http://www.w3.org/2000/svg" xmlns:xlink="http://www.w3.org/1999/xlink">
<title>&#208;&#144;&#208;&#160;&#208;&#154;&#208;&#158;&#208;&#157;</title>
<desc>Created using Figma</desc>
<g id="Canvas" transform="translate(475 286)">
<g id="&#208;&#144;&#208;&#160;&#208;&#154;&#208;&#158;&#208;&#157;">
<use xlink:href="#path0_fill" transform="translate(-475 -295)" fill="#FFCC00"/>
</g>
</g>
<defs>
<path id="path0_fill" d="M 23.2422 38.6758L 10.4004 38.6758L 7.95898 46L 0.170898 46L 13.4033 10.4531L 20.1904 10.4531L 33.4961 46L 25.708 46L 23.2422 38.6758ZM 12.3779 32.7432L 21.2646 32.7432L 16.7969 19.4375L 12.3779 32.7432ZM 44.1406 33.4756L 44.1406 46L 36.8164 46L 36.8164 10.4531L 50.6836 10.4531C 53.3529 10.4531 55.6966 10.9414 57.7148 11.918C 59.7493 12.8945 61.3118 14.2861 62.4023 16.0928C 63.4928 17.8831 64.0381 19.9258 64.0381 22.2207C 64.0381 25.7038 62.8418 28.4544 60.4492 30.4727C 58.0729 32.4746 54.777 33.4756 50.5615 33.4756L 44.1406 33.4756ZM 44.1406 27.543L 50.6836 27.543C 52.6204 27.543 54.0934 27.0872 55.1025 26.1758C 56.1279 25.2643 56.6406 23.9622 56.6406 22.2695C 56.6406 20.528 56.1279 19.1201 55.1025 18.0459C 54.0771 16.9717 52.6611 16.4183 50.8545 16.3857L 44.1406 16.3857L 44.1406 27.543ZM 80.6885 31.4736L 76.4648 31.4736L 76.4648 46L 69.1406 46L 69.1406 10.4531L 76.4648 10.4531L 76.4648 24.6865L 79.8096 24.6865L 88.501 10.4531L 97.4365 10.4531L 86.4746 27.2744L 98.584 46L 89.8438 46L 80.6885 31.4736ZM 129.834 29.0322C 129.834 32.5316 129.215 35.5996 127.979 38.2363C 126.742 40.873 124.967 42.9076 122.656 44.3398C 120.361 45.7721 117.725 46.4883 114.746 46.4883C 111.8 46.4883 109.172 45.7803 106.86 44.3643C 104.549 42.9482 102.759 40.93 101.489 38.3096C 100.22 35.6729 99.5768 32.6455 99.5605 29.2275L 99.5605 27.4697C 99.5605 23.9704 100.187 20.8942 101.44 18.2412C 102.71 15.5719 104.492 13.5293 106.787 12.1133C 109.098 10.681 111.735 9.96484 114.697 9.96484C 117.66 9.96484 120.288 10.681 122.583 12.1133C 124.894 13.5293 126.676 15.5719 127.93 18.2412C 129.199 20.8942 129.834 23.9622 129.834 27.4453L 129.834 29.0322ZM 122.412 27.4209C 122.412 23.6937 121.745 20.8617 120.41 18.9248C 119.076 16.988 117.171 16.0195 114.697 16.0195C 112.24 16.0195 110.343 16.9798 109.009 18.9004C 107.674 20.8047 106.999 23.6042 106.982 27.2988L 106.982 29.0322C 106.982 32.6618 107.65 35.4775 108.984 37.4795C 110.319 39.4814 112.24 40.4824 114.746 40.4824C 117.204 40.4824 119.092 39.5221 120.41 37.6016C 121.729 35.6647 122.396 32.849 122.412 29.1543L 122.412 27.4209ZM 164.087 46L 156.763 46L 156.763 30.7656L 142.48 30.7656L 142.48 46L 135.156 46L 135.156 10.4531L 142.48 10.4531L 142.48 24.8574L 156.763 24.8574L 156.763 10.4531L 164.087 10.4531L 164.087 46Z"/>
</defs>
</svg>
